<?xml version="1.0" standalone="yes"?>
<svg width="1170" height="737" xmlns="http://www.w3.org/2000/svg" version="1.1" >
	<polygon points="0,396 0,495 20,450" fill="rgb(238, 214, 75)" stroke="rgb(238, 214, 75)" stroke-width="2" stroke-linejoin="miter"/>
	<polygon points="0,99 0,198 40,150" fill="rgb(239, 216, 78)" stroke="rgb(239, 216, 78)" stroke-width="2" stroke-linejoin="miter"/>
	<polygon points="30,100 0,99 40,150" fill="rgb(239, 216, 78)" stroke="rgb(239, 216, 78)" stroke-width="2" stroke-linejoin="miter"/>
	<polygon points="0,0 0,99 30,100" fill="rgb(242, 223, 89)" stroke="rgb(242, 223, 89)" stroke-width="2" stroke-linejoin="miter"/>
	<polygon points="0,0 0,99 0,0" fill="rgb(236, 209, 66)" stroke="rgb(236, 209, 66)" stroke-width="2" stroke-linejoin="miter"/>
	<polygon points="0,198 0,297 70,230" fill="rgb(238, 214, 75)" stroke="rgb(238, 214, 75)" stroke-width="2" stroke-linejoin="miter"/>
	<polygon points="0,396 20,450 80,410" fill="rgb(241, 220, 85)" stroke="rgb(241, 220, 85)" stroke-width="2" stroke-linejoin="miter"/>
	<polygon points="40,150 0,198 70,230" fill="rgb(238, 216, 77)" stroke="rgb(238, 216, 77)" stroke-width="2" stroke-linejoin="miter"/>
	<polygon points="20,450 0,495 90,470" fill="rgb(241, 220, 84)" stroke="rgb(241, 220, 84)" stroke-width="2" stroke-linejoin="miter"/>
	<polygon points="0,693 0,737 99,737" fill="rgb(239, 217, 80)" stroke="rgb(239, 217, 80)" stroke-width="2" stroke-linejoin="miter"/>
	<polygon points="80,410 20,450 90,470" fill="rgb(241, 220, 85)" stroke="rgb(241, 220, 85)" stroke-width="2" stroke-linejoin="miter"/>
	<polygon points="0,330 0,396 80,410" fill="rgb(241, 220, 85)" stroke="rgb(241, 220, 85)" stroke-width="2" stroke-linejoin="miter"/>
	<polygon points="0,495 0,594 110,580" fill="rgb(239, 217, 80)" stroke="rgb(239, 217, 80)" stroke-width="2" stroke-linejoin="miter"/>
	<polygon points="90,470 0,495 110,580" fill="rgb(239, 218, 81)" stroke="rgb(239, 218, 81)" stroke-width="2" stroke-linejoin="miter"/>
	<polygon points="0,0 30,100 99,0" fill="rgb(236, 210, 67)" stroke="rgb(236, 210, 67)" stroke-width="2" stroke-linejoin="miter"/>
	<polygon points="0,594 0,693 140,630" fill="rgb(239, 219, 82)" stroke="rgb(239, 219, 82)" stroke-width="2" stroke-linejoin="miter"/>
	<polygon points="110,580 0,594 140,630" fill="rgb(240, 219, 83)" stroke="rgb(240, 219, 83)" stroke-width="2" stroke-linejoin="miter"/>
	<polygon points="0,693 99,737 140,630" fill="rgb(239, 217, 79)" stroke="rgb(239, 217, 79)" stroke-width="2" stroke-linejoin="miter"/>
	<polygon points="0,297 0,330 70,230" fill="rgb(238, 216, 76)" stroke="rgb(238, 216, 76)" stroke-width="2" stroke-linejoin="miter"/>
	<polygon points="140,630 99,737 170,730" fill="rgb(240, 220, 84)" stroke="rgb(240, 220, 84)" stroke-width="2" stroke-linejoin="miter"/>
	<polygon points="70,230 0,330 80,410" fill="rgb(238, 214, 74)" stroke="rgb(238, 214, 74)" stroke-width="2" stroke-linejoin="miter"/>
	<polygon points="198,0 99,0 240,100" fill="rgb(237, 211, 70)" stroke="rgb(237, 211, 70)" stroke-width="2" stroke-linejoin="miter"/>
	<polygon points="30,100 40,150 240,100" fill="rgb(241, 223, 88)" stroke="rgb(241, 223, 88)" stroke-width="2" stroke-linejoin="miter"/>
	<polygon points="99,0 30,100 240,100" fill="rgb(236, 211, 69)" stroke="rgb(236, 211, 69)" stroke-width="2" stroke-linejoin="miter"/>
	<polygon points="198,0 240,100 250,80" fill="rgb(236, 211, 69)" stroke="rgb(236, 211, 69)" stroke-width="2" stroke-linejoin="miter"/>
	<polygon points="40,150 70,230 250,150" fill="rgb(242, 224, 91)" stroke="rgb(242, 224, 91)" stroke-width="2" stroke-linejoin="miter"/>
	<polygon points="240,100 40,150 250,150" fill="rgb(237, 212, 71)" stroke="rgb(237, 212, 71)" stroke-width="2" stroke-linejoin="miter"/>
	<polygon points="90,470 110,580 260,570" fill="rgb(240, 219, 82)" stroke="rgb(240, 219, 82)" stroke-width="2" stroke-linejoin="miter"/>
	<polygon points="110,580 140,630 260,570" fill="rgb(240, 219, 83)" stroke="rgb(240, 219, 83)" stroke-width="2" stroke-linejoin="miter"/>
	<polygon points="140,630 170,730 198,737" fill="rgb(240, 219, 82)" stroke="rgb(240, 219, 82)" stroke-width="2" stroke-linejoin="miter"/>
	<polygon points="70,230 80,410 280,270" fill="rgb(238, 214, 75)" stroke="rgb(238, 214, 75)" stroke-width="2" stroke-linejoin="miter"/>
	<polygon points="250,150 70,230 280,270" fill="rgb(242, 224, 91)" stroke="rgb(242, 224, 91)" stroke-width="2" stroke-linejoin="miter"/>
	<polygon points="90,470 260,570 280,500" fill="rgb(242, 223, 90)" stroke="rgb(242, 223, 90)" stroke-width="2" stroke-linejoin="miter"/>
	<polygon points="250,150 280,270 290,240" fill="rgb(239, 216, 78)" stroke="rgb(239, 216, 78)" stroke-width="2" stroke-linejoin="miter"/>
	<polygon points="170,730 99,737 198,737" fill="rgb(240, 219, 82)" stroke="rgb(240, 219, 82)" stroke-width="2" stroke-linejoin="miter"/>
	<polygon points="80,410 280,500 300,340" fill="rgb(242, 223, 90)" stroke="rgb(242, 223, 90)" stroke-width="2" stroke-linejoin="miter"/>
	<polygon points="280,270 80,410 300,340" fill="rgb(241, 220, 85)" stroke="rgb(241, 220, 85)" stroke-width="2" stroke-linejoin="miter"/>
	<polygon points="198,0 250,80 297,0" fill="rgb(237, 211, 70)" stroke="rgb(237, 211, 70)" stroke-width="2" stroke-linejoin="miter"/>
	<polygon points="80,410 90,470 280,500" fill="rgb(242, 223, 90)" stroke="rgb(242, 223, 90)" stroke-width="2" stroke-linejoin="miter"/>
	<polygon points="140,630 198,737 260,570" fill="rgb(240, 219, 82)" stroke="rgb(240, 219, 82)" stroke-width="2" stroke-linejoin="miter"/>
	<polygon points="280,500 260,570 330,590" fill="rgb(240, 219, 82)" stroke="rgb(240, 219, 82)" stroke-width="2" stroke-linejoin="miter"/>
	<polygon points="260,570 297,737 330,590" fill="rgb(239, 219, 82)" stroke="rgb(239, 219, 82)" stroke-width="2" stroke-linejoin="miter"/>
	<polygon points="260,570 198,737 297,737" fill="rgb(240, 219, 83)" stroke="rgb(240, 219, 83)" stroke-width="2" stroke-linejoin="miter"/>
	<polygon points="240,100 250,150 250,80" fill="rgb(237, 212, 71)" stroke="rgb(237, 212, 71)" stroke-width="2" stroke-linejoin="miter"/>
	<polygon points="290,240 280,270 380,250" fill="rgb(239, 216, 77)" stroke="rgb(239, 216, 77)" stroke-width="2" stroke-linejoin="miter"/>
	<polygon points="330,590 390,640 390,610" fill="rgb(239, 217, 79)" stroke="rgb(239, 217, 79)" stroke-width="2" stroke-linejoin="miter"/>
	<polygon points="330,590 297,737 390,640" fill="rgb(239, 217, 79)" stroke="rgb(239, 217, 79)" stroke-width="2" stroke-linejoin="miter"/>
	<polygon points="280,270 300,340 380,250" fill="rgb(238, 214, 75)" stroke="rgb(238, 214, 75)" stroke-width="2" stroke-linejoin="miter"/>
	<polygon points="380,250 300,340 400,330" fill="rgb(238, 215, 76)" stroke="rgb(238, 215, 76)" stroke-width="2" stroke-linejoin="miter"/>
	<polygon points="390,640 297,737 396,737" fill="rgb(239, 217, 79)" stroke="rgb(239, 217, 79)" stroke-width="2" stroke-linejoin="miter"/>
	<polygon points="250,80 250,150 430,190" fill="rgb(237, 212, 71)" stroke="rgb(237, 212, 71)" stroke-width="2" stroke-linejoin="miter"/>
	<polygon points="396,0 250,80 430,190" fill="rgb(231, 198, 47)" stroke="rgb(231, 198, 47)" stroke-width="2" stroke-linejoin="miter"/>
	<polygon points="250,150 290,240 430,190" fill="rgb(232, 199, 49)" stroke="rgb(232, 199, 49)" stroke-width="2" stroke-linejoin="miter"/>
	<polygon points="290,240 380,250 430,190" fill="rgb(232, 200, 51)" stroke="rgb(232, 200, 51)" stroke-width="2" stroke-linejoin="miter"/>
	<polygon points="300,340 280,500 400,330" fill="rgb(241, 220, 84)" stroke="rgb(241, 220, 84)" stroke-width="2" stroke-linejoin="miter"/>
	<polygon points="297,0 250,80 396,0" fill="rgb(237, 211, 70)" stroke="rgb(237, 211, 70)" stroke-width="2" stroke-linejoin="miter"/>
	<polygon points="400,330 280,500 500,410" fill="rgb(238, 213, 73)" stroke="rgb(238, 213, 73)" stroke-width="2" stroke-linejoin="miter"/>
	<polygon points="390,640 396,737 495,737" fill="rgb(239, 218, 81)" stroke="rgb(239, 218, 81)" stroke-width="2" stroke-linejoin="miter"/>
	<polygon points="280,500 330,590 390,610" fill="rgb(239, 216, 78)" stroke="rgb(239, 216, 78)" stroke-width="2" stroke-linejoin="miter"/>
	<polygon points="390,610 390,640 520,610" fill="rgb(234, 205, 59)" stroke="rgb(234, 205, 59)" stroke-width="2" stroke-linejoin="miter"/>
	<polygon points="280,500 390,610 500,410" fill="rgb(235, 208, 64)" stroke="rgb(235, 208, 64)" stroke-width="2" stroke-linejoin="miter"/>
	<polygon points="500,410 390,610 540,560" fill="rgb(234, 205, 60)" stroke="rgb(234, 205, 60)" stroke-width="2" stroke-linejoin="miter"/>
	<polygon points="390,610 520,610 540,560" fill="rgb(234, 204, 58)" stroke="rgb(234, 204, 58)" stroke-width="2" stroke-linejoin="miter"/>
	<polygon points="390,640 495,737 520,610" fill="rgb(233, 202, 55)" stroke="rgb(233, 202, 55)" stroke-width="2" stroke-linejoin="miter"/>
	<polygon points="396,0 430,190 495,0" fill="rgb(230, 195, 42)" stroke="rgb(230, 195, 42)" stroke-width="2" stroke-linejoin="miter"/>
	<polygon points="380,250 400,330 430,190" fill="rgb(232, 200, 51)" stroke="rgb(232, 200, 51)" stroke-width="2" stroke-linejoin="miter"/>
	<polygon points="430,190 400,330 560,280" fill="rgb(232, 200, 51)" stroke="rgb(232, 200, 51)" stroke-width="2" stroke-linejoin="miter"/>
	<polygon points="400,330 560,330 560,280" fill="rgb(241, 222, 87)" stroke="rgb(241, 222, 87)" stroke-width="2" stroke-linejoin="miter"/>
	<polygon points="400,330 500,410 560,330" fill="rgb(235, 206, 61)" stroke="rgb(235, 206, 61)" stroke-width="2" stroke-linejoin="miter"/>
	<polygon points="495,0 430,190 580,100" fill="rgb(230, 196, 45)" stroke="rgb(230, 196, 45)" stroke-width="2" stroke-linejoin="miter"/>
	<polygon points="495,0 580,100 594,0" fill="rgb(233, 202, 55)" stroke="rgb(233, 202, 55)" stroke-width="2" stroke-linejoin="miter"/>
	<polygon points="520,610 495,737 580,730" fill="rgb(239, 217, 79)" stroke="rgb(239, 217, 79)" stroke-width="2" stroke-linejoin="miter"/>
	<polygon points="594,0 580,100 620,20" fill="rgb(234, 205, 60)" stroke="rgb(234, 205, 60)" stroke-width="2" stroke-linejoin="miter"/>
	<polygon points="540,560 520,610 620,590" fill="rgb(240, 220, 84)" stroke="rgb(240, 220, 84)" stroke-width="2" stroke-linejoin="miter"/>
	<polygon points="580,730 495,737 594,737" fill="rgb(240, 219, 82)" stroke="rgb(240, 219, 82)" stroke-width="2" stroke-linejoin="miter"/>
	<polygon points="430,190 560,280 580,100" fill="rgb(231, 198, 48)" stroke="rgb(231, 198, 48)" stroke-width="2" stroke-linejoin="miter"/>
	<polygon points="520,610 580,730 620,590" fill="rgb(241, 221, 85)" stroke="rgb(241, 221, 85)" stroke-width="2" stroke-linejoin="miter"/>
	<polygon points="620,20 580,100 660,80" fill="rgb(231, 198, 48)" stroke="rgb(231, 198, 48)" stroke-width="2" stroke-linejoin="miter"/>
	<polygon points="580,730 594,737 640,600" fill="rgb(241, 220, 85)" stroke="rgb(241, 220, 85)" stroke-width="2" stroke-linejoin="miter"/>
	<polygon points="620,590 580,730 640,600" fill="rgb(241, 220, 85)" stroke="rgb(241, 220, 85)" stroke-width="2" stroke-linejoin="miter"/>
	<polygon points="620,20 660,80 693,0" fill="rgb(236, 209, 66)" stroke="rgb(236, 209, 66)" stroke-width="2" stroke-linejoin="miter"/>
	<polygon points="594,0 620,20 693,0" fill="rgb(235, 208, 64)" stroke="rgb(235, 208, 64)" stroke-width="2" stroke-linejoin="miter"/>
	<polygon points="640,600 594,737 693,737" fill="rgb(241, 221, 85)" stroke="rgb(241, 221, 85)" stroke-width="2" stroke-linejoin="miter"/>
	<polygon points="580,100 560,280 660,80" fill="rgb(231, 198, 48)" stroke="rgb(231, 198, 48)" stroke-width="2" stroke-linejoin="miter"/>
	<polygon points="500,410 540,560 620,590" fill="rgb(233, 202, 54)" stroke="rgb(233, 202, 54)" stroke-width="2" stroke-linejoin="miter"/>
	<polygon points="640,600 693,737 770,610" fill="rgb(241, 221, 86)" stroke="rgb(241, 221, 86)" stroke-width="2" stroke-linejoin="miter"/>
	<polygon points="560,330 500,410 620,590" fill="rgb(233, 202, 55)" stroke="rgb(233, 202, 55)" stroke-width="2" stroke-linejoin="miter"/>
	<polygon points="660,80 560,280 790,210" fill="rgb(240, 220, 84)" stroke="rgb(240, 220, 84)" stroke-width="2" stroke-linejoin="miter"/>
	<polygon points="770,610 693,737 792,737" fill="rgb(241, 220, 85)" stroke="rgb(241, 220, 85)" stroke-width="2" stroke-linejoin="miter"/>
	<polygon points="560,280 560,330 820,320" fill="rgb(241, 220, 85)" stroke="rgb(241, 220, 85)" stroke-width="2" stroke-linejoin="miter"/>
	<polygon points="790,210 560,280 820,320" fill="rgb(240, 220, 84)" stroke="rgb(240, 220, 84)" stroke-width="2" stroke-linejoin="miter"/>
	<polygon points="693,0 660,80 792,0" fill="rgb(239, 217, 79)" stroke="rgb(239, 217, 79)" stroke-width="2" stroke-linejoin="miter"/>
	<polygon points="660,80 790,210 830,140" fill="rgb(239, 217, 79)" stroke="rgb(239, 217, 79)" stroke-width="2" stroke-linejoin="miter"/>
	<polygon points="640,600 770,610 840,480" fill="rgb(240, 219, 82)" stroke="rgb(240, 219, 82)" stroke-width="2" stroke-linejoin="miter"/>
	<polygon points="560,330 620,590 840,480" fill="rgb(239, 217, 79)" stroke="rgb(239, 217, 79)" stroke-width="2" stroke-linejoin="miter"/>
	<polygon points="620,590 640,600 840,480" fill="rgb(241, 220, 85)" stroke="rgb(241, 220, 85)" stroke-width="2" stroke-linejoin="miter"/>
	<polygon points="792,0 660,80 830,140" fill="rgb(239, 218, 81)" stroke="rgb(239, 218, 81)" stroke-width="2" stroke-linejoin="miter"/>
	<polygon points="820,320 560,330 850,410" fill="rgb(240, 220, 84)" stroke="rgb(240, 220, 84)" stroke-width="2" stroke-linejoin="miter"/>
	<polygon points="560,330 840,480 850,410" fill="rgb(241, 220, 85)" stroke="rgb(241, 220, 85)" stroke-width="2" stroke-linejoin="miter"/>
	<polygon points="840,480 770,610 870,570" fill="rgb(237, 213, 72)" stroke="rgb(237, 213, 72)" stroke-width="2" stroke-linejoin="miter"/>
	<polygon points="770,610 792,737 900,660" fill="rgb(240, 220, 84)" stroke="rgb(240, 220, 84)" stroke-width="2" stroke-linejoin="miter"/>
	<polygon points="792,737 891,737 900,660" fill="rgb(236, 210, 68)" stroke="rgb(236, 210, 68)" stroke-width="2" stroke-linejoin="miter"/>
	<polygon points="870,570 770,610 900,660" fill="rgb(236, 211, 69)" stroke="rgb(236, 211, 69)" stroke-width="2" stroke-linejoin="miter"/>
	<polygon points="891,0 830,140 910,120" fill="rgb(238, 216, 76)" stroke="rgb(238, 216, 76)" stroke-width="2" stroke-linejoin="miter"/>
	<polygon points="792,0 830,140 891,0" fill="rgb(239, 216, 78)" stroke="rgb(239, 216, 78)" stroke-width="2" stroke-linejoin="miter"/>
	<polygon points="891,0 950,50 950,30" fill="rgb(238, 216, 76)" stroke="rgb(238, 216, 76)" stroke-width="2" stroke-linejoin="miter"/>
	<polygon points="891,0 910,120 950,50" fill="rgb(238, 215, 76)" stroke="rgb(238, 215, 76)" stroke-width="2" stroke-linejoin="miter"/>
	<polygon points="900,660 891,737 960,730" fill="rgb(236, 210, 67)" stroke="rgb(236, 210, 67)" stroke-width="2" stroke-linejoin="miter"/>
	<polygon points="850,410 840,480 970,460" fill="rgb(238, 214, 74)" stroke="rgb(238, 214, 74)" stroke-width="2" stroke-linejoin="miter"/>
	<polygon points="840,480 870,570 970,460" fill="rgb(236, 211, 69)" stroke="rgb(236, 211, 69)" stroke-width="2" stroke-linejoin="miter"/>
	<polygon points="900,660 960,730 970,660" fill="rgb(236, 210, 67)" stroke="rgb(236, 210, 67)" stroke-width="2" stroke-linejoin="miter"/>
	<polygon points="870,570 970,660 990,530" fill="rgb(236, 210, 67)" stroke="rgb(236, 210, 67)" stroke-width="2" stroke-linejoin="miter"/>
	<polygon points="970,460 870,570 990,530" fill="rgb(236, 210, 69)" stroke="rgb(236, 210, 69)" stroke-width="2" stroke-linejoin="miter"/>
	<polygon points="891,0 950,30 990,0" fill="rgb(236, 211, 69)" stroke="rgb(236, 211, 69)" stroke-width="2" stroke-linejoin="miter"/>
	<polygon points="870,570 900,660 970,660" fill="rgb(236, 210, 67)" stroke="rgb(236, 210, 67)" stroke-width="2" stroke-linejoin="miter"/>
	<polygon points="830,140 790,210 910,120" fill="rgb(238, 215, 76)" stroke="rgb(238, 215, 76)" stroke-width="2" stroke-linejoin="miter"/>
	<polygon points="910,120 820,320 1020,270" fill="rgb(236, 209, 66)" stroke="rgb(236, 209, 66)" stroke-width="2" stroke-linejoin="miter"/>
	<polygon points="950,30 950,50 990,0" fill="rgb(236, 210, 68)" stroke="rgb(236, 210, 68)" stroke-width="2" stroke-linejoin="miter"/>
	<polygon points="970,660 960,730 990,737" fill="rgb(236, 208, 66)" stroke="rgb(236, 208, 66)" stroke-width="2" stroke-linejoin="miter"/>
	<polygon points="790,210 820,320 910,120" fill="rgb(239, 216, 77)" stroke="rgb(239, 216, 77)" stroke-width="2" stroke-linejoin="miter"/>
	<polygon points="950,50 910,120 1030,170" fill="rgb(236, 210, 67)" stroke="rgb(236, 210, 67)" stroke-width="2" stroke-linejoin="miter"/>
	<polygon points="910,120 1020,270 1030,170" fill="rgb(236, 208, 65)" stroke="rgb(236, 208, 65)" stroke-width="2" stroke-linejoin="miter"/>
	<polygon points="820,320 850,410 1020,270" fill="rgb(235, 208, 64)" stroke="rgb(235, 208, 64)" stroke-width="2" stroke-linejoin="miter"/>
	<polygon points="850,410 970,460 1020,270" fill="rgb(235, 207, 63)" stroke="rgb(235, 207, 63)" stroke-width="2" stroke-linejoin="miter"/>
	<polygon points="1030,170 1080,210 1080,200" fill="rgb(234, 205, 59)" stroke="rgb(234, 205, 59)" stroke-width="2" stroke-linejoin="miter"/>
	<polygon points="1030,170 1020,270 1080,210" fill="rgb(235, 207, 63)" stroke="rgb(235, 207, 63)" stroke-width="2" stroke-linejoin="miter"/>
	<polygon points="960,730 891,737 990,737" fill="rgb(236, 209, 66)" stroke="rgb(236, 209, 66)" stroke-width="2" stroke-linejoin="miter"/>
	<polygon points="1080,210 1020,270 1110,260" fill="rgb(235, 207, 62)" stroke="rgb(235, 207, 62)" stroke-width="2" stroke-linejoin="miter"/>
	<polygon points="1020,270 1110,300 1110,260" fill="rgb(235, 206, 61)" stroke="rgb(235, 206, 61)" stroke-width="2" stroke-linejoin="miter"/>
	<polygon points="1020,270 970,460 1110,300" fill="rgb(235, 206, 61)" stroke="rgb(235, 206, 61)" stroke-width="2" stroke-linejoin="miter"/>
	<polygon points="990,0 1030,170 1089,0" fill="rgb(233, 204, 58)" stroke="rgb(233, 204, 58)" stroke-width="2" stroke-linejoin="miter"/>
	<polygon points="970,660 990,737 1089,737" fill="rgb(235, 208, 64)" stroke="rgb(235, 208, 64)" stroke-width="2" stroke-linejoin="miter"/>
	<polygon points="990,0 950,50 1030,170" fill="rgb(236, 210, 68)" stroke="rgb(236, 210, 68)" stroke-width="2" stroke-linejoin="miter"/>
	<polygon points="970,460 990,530 1160,480" fill="rgb(239, 218, 81)" stroke="rgb(239, 218, 81)" stroke-width="2" stroke-linejoin="miter"/>
	<polygon points="1089,737 1170,737 1170,693" fill="rgb(241, 221, 86)" stroke="rgb(241, 221, 86)" stroke-width="2" stroke-linejoin="miter"/>
	<polygon points="1089,737 1170,693 1170,594" fill="rgb(240, 220, 84)" stroke="rgb(240, 220, 84)" stroke-width="2" stroke-linejoin="miter"/>
	<polygon points="970,660 1089,737 1170,594" fill="rgb(235, 208, 64)" stroke="rgb(235, 208, 64)" stroke-width="2" stroke-linejoin="miter"/>
	<polygon points="990,530 970,660 1170,594" fill="rgb(235, 208, 64)" stroke="rgb(235, 208, 64)" stroke-width="2" stroke-linejoin="miter"/>
	<polygon points="990,530 1170,594 1170,495" fill="rgb(240, 219, 83)" stroke="rgb(240, 219, 83)" stroke-width="2" stroke-linejoin="miter"/>
	<polygon points="1160,480 990,530 1170,495" fill="rgb(240, 219, 83)" stroke="rgb(240, 219, 83)" stroke-width="2" stroke-linejoin="miter"/>
	<polygon points="970,460 1160,480 1170,396" fill="rgb(237, 212, 71)" stroke="rgb(237, 212, 71)" stroke-width="2" stroke-linejoin="miter"/>
	<polygon points="1110,300 970,460 1170,396" fill="rgb(238, 216, 77)" stroke="rgb(238, 216, 77)" stroke-width="2" stroke-linejoin="miter"/>
	<polygon points="1160,480 1170,495 1170,396" fill="rgb(242, 223, 90)" stroke="rgb(242, 223, 90)" stroke-width="2" stroke-linejoin="miter"/>
	<polygon points="1110,300 1170,396 1170,297" fill="rgb(238, 214, 74)" stroke="rgb(238, 214, 74)" stroke-width="2" stroke-linejoin="miter"/>
	<polygon points="1110,260 1110,300 1170,297" fill="rgb(235, 207, 63)" stroke="rgb(235, 207, 63)" stroke-width="2" stroke-linejoin="miter"/>
	<polygon points="1080,210 1110,260 1170,198" fill="rgb(235, 207, 63)" stroke="rgb(235, 207, 63)" stroke-width="2" stroke-linejoin="miter"/>
	<polygon points="1080,200 1080,210 1170,198" fill="rgb(235, 206, 61)" stroke="rgb(235, 206, 61)" stroke-width="2" stroke-linejoin="miter"/>
	<polygon points="1110,260 1170,297 1170,198" fill="rgb(235, 207, 63)" stroke="rgb(235, 207, 63)" stroke-width="2" stroke-linejoin="miter"/>
	<polygon points="1089,0 1030,170 1170,99" fill="rgb(230, 197, 46)" stroke="rgb(230, 197, 46)" stroke-width="2" stroke-linejoin="miter"/>
	<polygon points="1030,170 1080,200 1170,99" fill="rgb(235, 206, 61)" stroke="rgb(235, 206, 61)" stroke-width="2" stroke-linejoin="miter"/>
	<polygon points="1080,200 1170,198 1170,99" fill="rgb(235, 207, 62)" stroke="rgb(235, 207, 62)" stroke-width="2" stroke-linejoin="miter"/>
	<polygon points="1089,0 1170,99 1170,0" fill="rgb(232, 200, 51)" stroke="rgb(232, 200, 51)" stroke-width="2" stroke-linejoin="miter"/>
	
</svg>